<?xml version="1.0" standalone="no"?>
<!DOCTYPE svg PUBLIC "-//W3C//DTD SVG 20010904//EN"
 "http://www.w3.org/TR/2001/REC-SVG-20010904/DTD/svg10.dtd">
<svg version="1.0" xmlns="http://www.w3.org/2000/svg"
 width="481.000000pt" height="258.000000pt" viewBox="0 0 481.000000 258.000000"
 preserveAspectRatio="xMidYMid meet">

<g transform="translate(0.000000,258.000000) scale(0.100000,-0.100000)"
fill="#000000" stroke="none">
<path d="M0 1290 l0 -1290 2405 0 2405 0 0 1290 0 1290 -2405 0 -2405 0 0
-1290z m1450 292 c0 -5 -47 -138 -104 -298 l-104 -289 -36 -3 -36 -3 36 98
c20 54 67 185 105 292 39 107 72 198 75 203 7 10 64 11 64 0z m2405 -52 c49
-21 99 -71 128 -124 17 -32 22 -59 22 -116 0 -90 -22 -138 -89 -197 -119 -105
-306 -77 -392 58 -137 218 94 483 331 379z m-1475 -30 l0 -50 -65 0 -65 0 0
-210 0 -210 -55 0 -55 0 0 210 0 210 -65 0 -65 0 0 50 0 50 185 0 185 0 0 -50z
m198 -87 c31 -73 59 -133 62 -133 3 0 31 60 62 133 l56 132 57 3 c52 3 57 1
51 -15 -26 -66 -222 -503 -226 -503 -4 0 -201 442 -229 512 -1 5 23 8 54 6
l57 -3 56 -132z m442 -123 l0 -260 -55 0 -55 0 0 260 0 260 55 0 55 0 0 -260z
m303 230 c84 -42 130 -122 131 -225 0 -171 -106 -265 -299 -265 l-85 0 0 261
0 261 103 -4 c83 -3 111 -8 150 -28z m-2213 -48 c0 -38 -1 -40 -106 -107
l-105 -68 48 -34 c26 -19 74 -53 106 -75 52 -38 57 -44 57 -79 l0 -39 -147
104 c-92 64 -149 110 -151 122 -2 15 32 41 145 116 82 53 149 97 151 97 1 1 2
-16 2 -37z m700 -174 c0 -10 -40 -45 -102 -89 -57 -40 -124 -88 -150 -106
l-48 -35 0 40 c0 36 4 42 58 80 31 22 79 56 105 75 l48 34 -105 68 c-104 67
-106 69 -106 106 l0 38 150 -97 c96 -62 150 -103 150 -114z"/>
<path d="M3682 1434 c-98 -50 -121 -167 -49 -246 96 -105 267 -39 267 103 0
111 -123 191 -218 143z"/>
<path d="M3180 1296 l0 -156 36 0 c75 0 134 66 134 152 0 83 -48 138 -132 153
l-38 7 0 -156z"/>
</g>
</svg>
