<?xml version="1.0" standalone="no"?>
<!DOCTYPE svg PUBLIC "-//W3C//DTD SVG 20010904//EN"
 "http://www.w3.org/TR/2001/REC-SVG-20010904/DTD/svg10.dtd">
<svg version="1.0" xmlns="http://www.w3.org/2000/svg"
 width="341.000000pt" height="258.000000pt" viewBox="0 0 341.000000 258.000000"
 preserveAspectRatio="xMidYMid meet">

<g transform="translate(0.000000,258.000000) scale(0.100000,-0.100000)"
fill="#000000" stroke="none">
<path d="M0 1290 l0 -1290 1705 0 1705 0 0 1290 0 1290 -1705 0 -1705 0 0
-1290z m750 291 c0 -11 -206 -581 -213 -587 -3 -3 -18 -4 -35 -2 l-30 3 102
280 c56 154 105 288 109 298 7 17 67 25 67 8z m2397 -47 c17 -7 52 -31 76 -53
118 -109 115 -281 -7 -388 -185 -163 -477 7 -427 249 34 160 207 253 358 192z
m-1467 -34 l0 -50 -65 0 -65 0 0 -210 0 -210 -55 0 -55 0 0 210 0 210 -65 0
-65 0 0 50 0 50 185 0 185 0 0 -50z m198 -87 c31 -73 59 -133 62 -133 3 0 31
60 62 133 l56 132 57 3 c52 3 57 1 51 -15 -21 -57 -221 -503 -226 -503 -4 0
-209 458 -229 512 -2 5 21 8 54 6 l57 -3 56 -132z m442 -123 l0 -260 -55 0
-55 0 0 260 0 260 55 0 55 0 0 -260z m303 230 c84 -42 130 -121 131 -225 1
-110 -45 -189 -139 -238 -31 -16 -64 -22 -142 -25 l-103 -4 0 262 0 262 103
-4 c83 -3 111 -8 150 -28z m-2213 -49 c0 -39 -1 -40 -92 -97 -51 -31 -98 -62
-105 -68 -9 -8 14 -30 93 -85 102 -73 104 -75 104 -113 l0 -40 -47 35 c-27 18
-94 66 -150 106 -63 44 -103 79 -103 89 0 11 54 52 148 114 81 53 148 97 150
97 1 1 2 -17 2 -38z m698 -175 c-2 -12 -58 -58 -150 -122 l-148 -104 0 39 c0
35 5 41 58 79 31 22 79 56 105 75 l48 34 -105 69 c-103 67 -106 69 -106 106
l0 37 150 -97 c116 -75 150 -101 148 -116z"/>
<path d="M2982 1434 c-99 -51 -122 -170 -47 -247 100 -103 265 -38 265 104 0
111 -123 191 -218 143z"/>
<path d="M2480 1296 l0 -156 36 0 c75 0 134 66 134 152 0 83 -48 138 -132 153
l-38 7 0 -156z"/>
</g>
</svg>
